<svg xmlns="http://www.w3.org/2000/svg">
  <!-- Icons from Tabler Icons; see TABLER_ICONS_LICENSE. -->
  <symbol id="dashboard" viewBox="0 0 24 24"><path d="M5 4h4a1 1 0 0 1 1 1v6a1 1 0 0 1-1 1H5a1 1 0 0 1-1-1V5a1 1 0 0 1 1-1M5 16h4a1 1 0 0 1 1 1v2a1 1 0 0 1-1 1H5a1 1 0 0 1-1-1v-2a1 1 0 0 1 1-1M15 12h4a1 1 0 0 1 1 1v6a1 1 0 0 1-1 1h-4a1 1 0 0 1-1-1v-6a1 1 0 0 1 1-1M15 4h4a1 1 0 0 1 1 1v2a1 1 0 0 1-1 1h-4a1 1 0 0 1-1-1V5a1 1 0 0 1 1-1"/></symbol>
  <symbol id="orders" viewBox="0 0 24 24"><path d="M6.331 8H17.67a2 2 0 0 1 1.977 2.304l-1.255 8.152A3 3 0 0 1 15.426 21H8.574a3 3 0 0 1-2.965-2.544l-1.255-8.152A2 2 0 0 1 6.331 8M9 11V6a3 3 0 0 1 6 0v5"/></symbol>
  <symbol id="risk" viewBox="0 0 24 24"><path d="M12 9v4M10.363 3.591 2.257 17.125a1.914 1.914 0 0 0 1.636 2.871h16.214a1.914 1.914 0 0 0 1.636-2.87L13.637 3.59a1.914 1.914 0 0 0-3.274 0M12 16h.01"/></symbol>
  <symbol id="delivery" viewBox="0 0 24 24"><path d="M5 17a2 2 0 1 0 4 0 2 2 0 1 0-4 0M15 17a2 2 0 1 0 4 0 2 2 0 1 0-4 0M5 17H3v-4M2 5h11v12M9 17h6M19 17h2v-6h-8M13 6h5l3 5M3 9h4"/></symbol>
  <symbol id="returns" viewBox="0 0 24 24"><path d="m9 14-4-4 4-4M5 10h11a4 4 0 1 1 0 8h-1"/></symbol>
  <symbol id="stock" viewBox="0 0 24 24"><path d="m12 3 8 4.5v9L12 21l-8-4.5v-9L12 3M12 12l8-4.5M12 12v9M12 12 4 7.5"/></symbol>
  <symbol id="transfer" viewBox="0 0 24 24"><path d="M7 10h14l-4-4M17 14H3l4 4"/></symbol>
  <symbol id="sync" viewBox="0 0 24 24"><path d="M20 11A8.1 8.1 0 0 0 4.5 9M4 5v4h4M4 13a8.1 8.1 0 0 0 15.5 2m.5 4v-4h-4"/></symbol>
  <symbol id="clock" viewBox="0 0 24 24"><path d="M12 7v5l3 3M12 21a9 9 0 1 0 0-18 9 9 0 0 0 0 18"/></symbol>
  <symbol id="rules" viewBox="0 0 24 24"><path d="M12 6a2 2 0 1 0 4 0 2 2 0 1 0-4 0M4 6h8M16 6h4M6 12a2 2 0 1 0 4 0 2 2 0 1 0-4 0M4 12h2M10 12h10M15 18a2 2 0 1 0 4 0 2 2 0 1 0-4 0M4 18h11M19 18h1"/></symbol>
  <symbol id="dingtalk" viewBox="0 0 24 24"><path d="m3 20 1.3-3.9C1.976 12.663 2.874 8.228 6.4 5.726c3.526-2.501 8.59-2.296 11.845.48 3.255 2.777 3.695 7.266 1.029 10.501C16.608 19.942 11.659 20.922 7.7 19L3 20"/></symbol>
  <symbol id="theme" viewBox="0 0 24 24"><path d="M12 3h.393a7.5 7.5 0 0 0 7.92 12.446A9 9 0 1 1 12 2.992V3"/></symbol>
  <symbol id="settings" viewBox="0 0 24 24"><path d="M10.325 4.317c.426-1.756 2.924-1.756 3.35 0a1.724 1.724 0 0 0 2.573 1.066c1.543-.94 3.31.826 2.37 2.37a1.724 1.724 0 0 0 1.065 2.572c1.756.426 1.756 2.924 0 3.35a1.724 1.724 0 0 0-1.066 2.573c.94 1.543-.826 3.31-2.37 2.37a1.724 1.724 0 0 0-2.572 1.065c-.426 1.756-2.924 1.756-3.35 0a1.724 1.724 0 0 0-2.573-1.066c-1.543.94-3.31-.826-2.37-2.37a1.724 1.724 0 0 0-1.065-2.572c-1.756-.426-1.756-2.924 0-3.35a1.724 1.724 0 0 0 1.066-2.573c-.94-1.543.826-3.31 2.37-2.37 1 .608 2.296.07 2.572-1.065M9 12a3 3 0 1 0 6 0 3 3 0 0 0-6 0"/></symbol>
  <symbol id="chevron-down" viewBox="0 0 24 24"><path d="m6 9 6 6 6-6"/></symbol>
</svg>
